<svg width="500" height="396" viewBox="0 0 500 396" fill="none" xmlns="http://www.w3.org/2000/svg">
<path d="M94.56 133.52L32.88 212H94.56V133.52ZM120.96 238.16V284H94.56V238.16H0V212L88.56 103.52H120.96V212H147.6L137.76 238.16H120.96Z" fill="#e44d22"/>
<path d="M251.704 288.08C242.424 288.08 233.224 286.4 224.104 283.04C215.144 279.68 207.144 274.32 200.104 266.96C193.064 259.44 187.304 249.84 182.824 238.16C178.504 226.32 176.344 212 176.344 195.2C176.344 178.4 178.504 164 182.824 152C187.304 139.84 193.064 129.92 200.104 122.24C207.144 114.56 215.144 108.88 224.104 105.2C233.224 101.52 242.424 99.68 251.704 99.68C260.984 99.68 270.104 101.52 279.064 105.2C288.184 108.88 296.264 114.56 303.304 122.24C310.344 129.92 316.024 139.84 320.344 152C324.824 164 327.064 178.4 327.064 195.2C327.064 212 324.824 226.32 320.344 238.16C316.024 249.84 310.344 259.44 303.304 266.96C296.264 274.32 288.184 279.68 279.064 283.04C270.104 286.4 260.984 288.08 251.704 288.08ZM301.384 195.2C301.384 183.52 300.024 173.36 297.304 164.72C294.584 156.08 290.904 148.88 286.264 143.12C281.784 137.36 276.504 133.12 270.424 130.4C264.504 127.52 258.264 126.08 251.704 126.08C245.144 126.08 238.824 127.52 232.744 130.4C226.824 133.12 221.544 137.36 216.904 143.12C212.424 148.88 208.824 156.08 206.104 164.72C203.384 173.36 202.024 183.52 202.024 195.2C202.024 206.88 203.384 216.96 206.104 225.44C208.824 233.76 212.424 240.64 216.904 246.08C221.544 251.52 226.824 255.52 232.744 258.08C238.824 260.64 245.144 261.92 251.704 261.92C258.264 261.92 264.504 260.64 270.424 258.08C276.504 255.52 281.784 251.52 286.264 246.08C290.904 240.64 294.584 233.76 297.304 225.44C300.024 216.96 301.384 206.88 301.384 195.2Z" fill="#e44d22"/>
<path d="M446.723 133.52L385.043 212H446.723V133.52ZM473.122 238.16V284H446.723V238.16H352.163V212L440.723 103.52H473.122V212H499.763L489.923 238.16H473.122Z" fill="#e44d22"/>
<g opacity="0.1">
<path d="M311.484 10.7771L291.861 35.7707H311.484V10.7771ZM319.883 44.1019V58.7006H311.484V44.1019H281.4V35.7707L309.575 1.22293H319.883V35.7707H328.359L325.228 44.1019H319.883Z" fill="#e44d22"/>
<path d="M361.48 60C358.527 60 355.6 59.465 352.699 58.3949C349.848 57.3248 347.303 55.6178 345.063 53.2739C342.823 50.879 340.991 47.8217 339.565 44.1019C338.191 40.3312 337.504 35.7707 337.504 30.4204C337.504 25.0701 338.191 20.4841 339.565 16.6624C340.991 12.7898 342.823 9.63057 345.063 7.18471C347.303 4.73885 349.848 2.92993 352.699 1.75796C355.6 0.585986 358.527 0 361.48 0C364.432 0 367.334 0.585986 370.184 1.75796C373.086 2.92993 375.657 4.73885 377.896 7.18471C380.136 9.63057 381.943 12.7898 383.318 16.6624C384.743 20.4841 385.456 25.0701 385.456 30.4204C385.456 35.7707 384.743 40.3312 383.318 44.1019C381.943 47.8217 380.136 50.879 377.896 53.2739C375.657 55.6178 373.086 57.3248 370.184 58.3949C367.334 59.465 364.432 60 361.48 60ZM377.285 30.4204C377.285 26.7006 376.853 23.465 375.987 20.7134C375.122 17.9618 373.951 15.6688 372.475 13.8344C371.05 12 369.37 10.6497 367.436 9.78344C365.552 8.86624 363.567 8.40764 361.48 8.40764C359.393 8.40764 357.382 8.86624 355.448 9.78344C353.564 10.6497 351.884 12 350.408 13.8344C348.983 15.6688 347.837 17.9618 346.972 20.7134C346.107 23.465 345.674 26.7006 345.674 30.4204C345.674 34.1401 346.107 37.3503 346.972 40.0509C347.837 42.7006 348.983 44.8917 350.408 46.6242C351.884 48.3567 353.564 49.6306 355.448 50.4459C357.382 51.2611 359.393 51.6688 361.48 51.6688C363.567 51.6688 365.552 51.2611 367.436 50.4459C369.37 49.6306 371.05 48.3567 372.475 46.6242C373.951 44.8917 375.122 42.7006 375.987 40.0509C376.853 37.3503 377.285 34.1401 377.285 30.4204Z" fill="#e44d22"/>
<path d="M423.525 10.7771L403.902 35.7707H423.525V10.7771ZM431.924 44.1019V58.7006H423.525V44.1019H393.441V35.7707L421.616 1.22293H431.924V35.7707H440.4L437.269 44.1019H431.924Z" fill="#e44d22"/>
</g>
<g opacity="0.1">
<path d="M83.4843 346.777L63.8607 371.771H83.4843V346.777ZM91.8835 380.102V394.701H83.4843V380.102H53.3999V371.771L81.5754 337.223H91.8835V371.771H100.359L97.2284 380.102H91.8835Z" fill="#e44d22"/>
<path d="M133.48 396C130.527 396 127.6 395.465 124.699 394.395C121.848 393.325 119.303 391.618 117.063 389.274C114.823 386.879 112.991 383.822 111.565 380.102C110.191 376.331 109.504 371.771 109.504 366.42C109.504 361.07 110.191 356.484 111.565 352.662C112.991 348.79 114.823 345.631 117.063 343.185C119.303 340.739 121.848 338.93 124.699 337.758C127.6 336.586 130.527 336 133.48 336C136.432 336 139.334 336.586 142.184 337.758C145.086 338.93 147.657 340.739 149.896 343.185C152.136 345.631 153.943 348.79 155.318 352.662C156.743 356.484 157.456 361.07 157.456 366.42C157.456 371.771 156.743 376.331 155.318 380.102C153.943 383.822 152.136 386.879 149.896 389.274C147.657 391.618 145.086 393.325 142.184 394.395C139.334 395.465 136.432 396 133.48 396ZM149.285 366.42C149.285 362.701 148.853 359.465 147.987 356.713C147.122 353.962 145.951 351.669 144.475 349.834C143.05 348 141.37 346.65 139.436 345.783C137.552 344.866 135.567 344.408 133.48 344.408C131.393 344.408 129.382 344.866 127.448 345.783C125.564 346.65 123.884 348 122.408 349.834C120.983 351.669 119.837 353.962 118.972 356.713C118.107 359.465 117.674 362.701 117.674 366.42C117.674 370.14 118.107 373.35 118.972 376.051C119.837 378.701 120.983 380.892 122.408 382.624C123.884 384.357 125.564 385.631 127.448 386.446C129.382 387.261 131.393 387.669 133.48 387.669C135.567 387.669 137.552 387.261 139.436 386.446C141.37 385.631 143.05 384.357 144.475 382.624C145.951 380.892 147.122 378.701 147.987 376.051C148.853 373.35 149.285 370.14 149.285 366.42Z" fill="#e44d22"/>
<path d="M195.525 346.777L175.902 371.771H195.525V346.777ZM203.924 380.102V394.701H195.525V380.102H165.441V371.771L193.616 337.223H203.924V371.771H212.4L209.269 380.102H203.924Z" fill="#e44d22"/>
</g>
</svg>
