<svg width="46" height="54" viewBox="0 0 46 54" fill="none" xmlns="http://www.w3.org/2000/svg">
<path d="M45.2683 17.8295C42.5558 5.89445 32.145 0.521118 23 0.521118C23 0.521118 23 0.521118 22.9742 0.521118C13.855 0.521118 3.41834 5.86862 0.705836 17.8036C-2.31666 31.1336 5.84667 42.4228 13.235 49.5269C15.9733 52.1619 19.4867 53.4795 23 53.4795C26.5133 53.4795 30.0267 52.1619 32.7392 49.5269C40.1275 42.4228 48.2908 31.1594 45.2683 17.8295ZM23 30.7719C18.505 30.7719 14.8625 27.1295 14.8625 22.6345C14.8625 18.1395 18.505 14.497 23 14.497C27.495 14.497 31.1375 18.1395 31.1375 22.6345C31.1375 27.1295 27.495 30.7719 23 30.7719Z" fill="#292D32"/>
</svg>
